# xmcd
#
# Track frame offsets:
#	150
#	18372
#	37637
#	53787
#	70600
#	90561
#	108680
#	126936
#	144335
#	161803
#	179372
#
# Disc length: 2674 seconds
#
# Revision: 1
# Processed by: cddbd v1.5.1PL0 Copyright (c) Steve Scherf et al.
# Submitted via: EasyCDDAExtractor 6.5.0.1
#
DISCID=8b0a700b
DTITLE=O-Zone - DiscO-Zone
DYEAR=1900
DGENRE=Pop
TTITLE0=Fiesta de la noche
TTITLE1=De ce plang chitarele
TTITLE2=Dragosta din tei
TTITLE3=Printre nori
TTITLE4=Oriunde ai fi
TTITLE5=Numai Tu
TTITLE6=Dar Unde Esti
TTITLE7=Despre Tine
TTITLE8=Sarbatoarea noptilor de vara
TTITLE9=Nu mas las de limba noastra
TTITLE10=Crede-ma
EXTD=
EXTT0=
EXTT1=
EXTT2=
EXTT3=
EXTT4=
EXTT5=
EXTT6=
EXTT7=
EXTT8=
EXTT9=
EXTT10=
PLAYORDER=
